<svg width="598" height="596" viewBox="0 0 598 596" fill="none" xmlns="http://www.w3.org/2000/svg">
<path d="M435.942 112.346C479.895 141.848 520.858 177.31 545.077 224.692C568.997 271.776 576.173 330.78 551.057 371.01C525.941 410.942 468.832 431.802 421.59 458.622C374.348 485.144 336.674 517.626 290.927 528.652C244.881 539.976 191.061 530.142 144.716 503.024C98.371 476.204 59.8 432.1 55.913 385.016C51.727 337.932 82.524 287.868 104.052 238.996C125.58 189.826 137.839 142.146 168.935 108.472C200.031 74.798 249.366 55.428 297.505 57.514C345.644 59.302 391.989 82.844 435.942 112.346Z" fill="url(#paint0_linear_3_3)"/>
<defs>
<linearGradient id="paint0_linear_3_3" x1="311.155" y1="57.3611" x2="311.155" y2="533.275" gradientUnits="userSpaceOnUse">
<stop stop-color="#8EA1E3"/>
<stop offset="1" stop-color="#8A3FFC" stop-opacity="0.84"/>
</linearGradient>
</defs>
</svg>
